<mxfile host="www.draw.io" modified="2019-11-23T10:12:23.878Z" agent="Mozilla/5.0 (Macintosh; Intel Mac OS X 10_13_6) AppleWebKit/537.36 (KHTML, like Gecko) Chrome/76.0.3809.132 Safari/537.36" etag="ckV4s8yWzsvR-AH55vbV" version="12.2.6" type="github" pages="1">
  <diagram id="XUHMKD5v9ukjIzp1FH98" name="Page-1">
    <mxGraphModel dx="1296" dy="917" grid="1" gridSize="10" guides="1" tooltips="1" connect="1" arrows="1" fold="1" page="0" pageScale="1" pageWidth="827" pageHeight="1169" math="0" shadow="0">
      <root>
        <mxCell id="0"/>
        <mxCell id="1" parent="0"/>
        <mxCell id="5gauXsj9vRF6J2wHdhXM-2" value="w1" style="rounded=0;whiteSpace=wrap;html=1;" parent="1" vertex="1">
          <mxGeometry x="70" y="240" width="60" height="20" as="geometry"/>
        </mxCell>
        <mxCell id="5gauXsj9vRF6J2wHdhXM-4" value="w2" style="rounded=0;whiteSpace=wrap;html=1;" parent="1" vertex="1">
          <mxGeometry x="70" y="280" width="60" height="20" as="geometry"/>
        </mxCell>
        <mxCell id="5gauXsj9vRF6J2wHdhXM-5" value="w3" style="rounded=0;whiteSpace=wrap;html=1;" parent="1" vertex="1">
          <mxGeometry x="70" y="320" width="60" height="20" as="geometry"/>
        </mxCell>
        <mxCell id="5gauXsj9vRF6J2wHdhXM-6" value="" style="shape=curlyBracket;whiteSpace=wrap;html=1;rounded=1;size=0.4;" parent="1" vertex="1">
          <mxGeometry x="40" y="240" width="20" height="140" as="geometry"/>
        </mxCell>
        <mxCell id="5gauXsj9vRF6J2wHdhXM-7" value="wk" style="rounded=0;whiteSpace=wrap;html=1;" parent="1" vertex="1">
          <mxGeometry x="70" y="360" width="60" height="20" as="geometry"/>
        </mxCell>
        <mxCell id="5gauXsj9vRF6J2wHdhXM-8" value="" style="endArrow=classic;html=1;" parent="1" edge="1">
          <mxGeometry width="50" height="50" relative="1" as="geometry">
            <mxPoint x="130" y="249.5" as="sourcePoint"/>
            <mxPoint x="170" y="249.5" as="targetPoint"/>
          </mxGeometry>
        </mxCell>
        <mxCell id="5gauXsj9vRF6J2wHdhXM-9" value="" style="endArrow=classic;html=1;" parent="1" edge="1">
          <mxGeometry width="50" height="50" relative="1" as="geometry">
            <mxPoint x="130" y="289.5" as="sourcePoint"/>
            <mxPoint x="170" y="289.5" as="targetPoint"/>
          </mxGeometry>
        </mxCell>
        <mxCell id="5gauXsj9vRF6J2wHdhXM-10" value="" style="endArrow=classic;html=1;" parent="1" edge="1">
          <mxGeometry width="50" height="50" relative="1" as="geometry">
            <mxPoint x="130" y="329.5" as="sourcePoint"/>
            <mxPoint x="170" y="329.5" as="targetPoint"/>
          </mxGeometry>
        </mxCell>
        <mxCell id="5gauXsj9vRF6J2wHdhXM-11" value="" style="endArrow=classic;html=1;" parent="1" edge="1">
          <mxGeometry width="50" height="50" relative="1" as="geometry">
            <mxPoint x="130" y="369.5" as="sourcePoint"/>
            <mxPoint x="170" y="369.5" as="targetPoint"/>
            <Array as="points">
              <mxPoint x="150" y="369.5"/>
            </Array>
          </mxGeometry>
        </mxCell>
        <mxCell id="5gauXsj9vRF6J2wHdhXM-12" value="" style="verticalLabelPosition=bottom;verticalAlign=top;html=1;shape=mxgraph.basic.layered_rect;dx=10;outlineConnect=0;rotation=-90;" parent="1" vertex="1">
          <mxGeometry x="140" y="280" width="140" height="60" as="geometry"/>
        </mxCell>
        <mxCell id="5gauXsj9vRF6J2wHdhXM-14" value="Conv" style="text;html=1;resizable=0;points=[];autosize=1;align=left;verticalAlign=top;spacingTop=-4;" parent="1" vertex="1">
          <mxGeometry x="190" y="290" width="40" height="20" as="geometry"/>
        </mxCell>
        <mxCell id="5gauXsj9vRF6J2wHdhXM-15" value="..." style="text;html=1;resizable=0;points=[];autosize=1;align=left;verticalAlign=top;spacingTop=-4;" parent="1" vertex="1">
          <mxGeometry x="90" y="340" width="30" height="20" as="geometry"/>
        </mxCell>
        <mxCell id="5gauXsj9vRF6J2wHdhXM-28" style="edgeStyle=orthogonalEdgeStyle;rounded=0;orthogonalLoop=1;jettySize=auto;html=1;exitX=0;exitY=0.5;exitDx=0;exitDy=0;exitPerimeter=0;" parent="1" source="5gauXsj9vRF6J2wHdhXM-19" edge="1">
          <mxGeometry relative="1" as="geometry">
            <mxPoint x="400" y="470" as="targetPoint"/>
            <Array as="points">
              <mxPoint x="310" y="331"/>
              <mxPoint x="310" y="500"/>
              <mxPoint x="400" y="500"/>
            </Array>
          </mxGeometry>
        </mxCell>
        <mxCell id="5gauXsj9vRF6J2wHdhXM-19" value="" style="strokeWidth=2;html=1;shape=mxgraph.flowchart.annotation_2;align=left;labelPosition=right;pointerEvents=1;rotation=-155;" parent="1" vertex="1">
          <mxGeometry x="230" y="300" width="50" height="40" as="geometry"/>
        </mxCell>
        <mxCell id="5gauXsj9vRF6J2wHdhXM-70" style="edgeStyle=orthogonalEdgeStyle;rounded=0;orthogonalLoop=1;jettySize=auto;html=1;exitX=0;exitY=0.5;exitDx=0;exitDy=0;entryX=0.5;entryY=1;entryDx=0;entryDy=0;" parent="1" source="5gauXsj9vRF6J2wHdhXM-23" target="5gauXsj9vRF6J2wHdhXM-45" edge="1">
          <mxGeometry relative="1" as="geometry"/>
        </mxCell>
        <mxCell id="5gauXsj9vRF6J2wHdhXM-23" value="" style="rounded=0;whiteSpace=wrap;html=1;rotation=90;" parent="1" vertex="1">
          <mxGeometry x="310" y="380" width="60" height="20" as="geometry"/>
        </mxCell>
        <mxCell id="5gauXsj9vRF6J2wHdhXM-24" value="r1" style="text;html=1;resizable=0;points=[];autosize=1;align=left;verticalAlign=top;spacingTop=-4;direction=south;" parent="1" vertex="1">
          <mxGeometry x="333" y="380" width="20" height="30" as="geometry"/>
        </mxCell>
        <mxCell id="5gauXsj9vRF6J2wHdhXM-71" style="edgeStyle=orthogonalEdgeStyle;rounded=0;orthogonalLoop=1;jettySize=auto;html=1;exitX=0;exitY=0.5;exitDx=0;exitDy=0;entryX=0.5;entryY=1;entryDx=0;entryDy=0;" parent="1" source="5gauXsj9vRF6J2wHdhXM-25" target="5gauXsj9vRF6J2wHdhXM-47" edge="1">
          <mxGeometry relative="1" as="geometry"/>
        </mxCell>
        <mxCell id="5gauXsj9vRF6J2wHdhXM-25" value="" style="rounded=0;whiteSpace=wrap;html=1;rotation=90;" parent="1" vertex="1">
          <mxGeometry x="353" y="380" width="60" height="20" as="geometry"/>
        </mxCell>
        <mxCell id="5gauXsj9vRF6J2wHdhXM-72" style="edgeStyle=orthogonalEdgeStyle;rounded=0;orthogonalLoop=1;jettySize=auto;html=1;exitX=0;exitY=0.5;exitDx=0;exitDy=0;entryX=0.5;entryY=1;entryDx=0;entryDy=0;" parent="1" source="5gauXsj9vRF6J2wHdhXM-29" target="5gauXsj9vRF6J2wHdhXM-48" edge="1">
          <mxGeometry relative="1" as="geometry"/>
        </mxCell>
        <mxCell id="5gauXsj9vRF6J2wHdhXM-29" value="" style="rounded=0;whiteSpace=wrap;html=1;rotation=90;" parent="1" vertex="1">
          <mxGeometry x="400" y="380" width="60" height="20" as="geometry"/>
        </mxCell>
        <mxCell id="5gauXsj9vRF6J2wHdhXM-73" style="edgeStyle=orthogonalEdgeStyle;rounded=0;orthogonalLoop=1;jettySize=auto;html=1;exitX=0;exitY=0.5;exitDx=0;exitDy=0;entryX=0.5;entryY=1;entryDx=0;entryDy=0;" parent="1" source="5gauXsj9vRF6J2wHdhXM-30" target="5gauXsj9vRF6J2wHdhXM-50" edge="1">
          <mxGeometry relative="1" as="geometry"/>
        </mxCell>
        <mxCell id="5gauXsj9vRF6J2wHdhXM-30" value="" style="rounded=0;whiteSpace=wrap;html=1;rotation=90;" parent="1" vertex="1">
          <mxGeometry x="440" y="380" width="60" height="20" as="geometry"/>
        </mxCell>
        <mxCell id="5gauXsj9vRF6J2wHdhXM-74" style="edgeStyle=orthogonalEdgeStyle;rounded=0;orthogonalLoop=1;jettySize=auto;html=1;exitX=0;exitY=0.5;exitDx=0;exitDy=0;entryX=0.5;entryY=1;entryDx=0;entryDy=0;" parent="1" source="5gauXsj9vRF6J2wHdhXM-31" target="5gauXsj9vRF6J2wHdhXM-52" edge="1">
          <mxGeometry relative="1" as="geometry"/>
        </mxCell>
        <mxCell id="5gauXsj9vRF6J2wHdhXM-31" value="" style="rounded=0;whiteSpace=wrap;html=1;rotation=90;" parent="1" vertex="1">
          <mxGeometry x="485" y="380" width="60" height="20" as="geometry"/>
        </mxCell>
        <mxCell id="5gauXsj9vRF6J2wHdhXM-32" value="r2" style="text;html=1;resizable=0;points=[];autosize=1;align=left;verticalAlign=top;spacingTop=-4;direction=south;" parent="1" vertex="1">
          <mxGeometry x="380" y="380" width="30" height="20" as="geometry"/>
        </mxCell>
        <mxCell id="5gauXsj9vRF6J2wHdhXM-35" value="r3" style="text;html=1;resizable=0;points=[];autosize=1;align=left;verticalAlign=top;spacingTop=-4;" parent="1" vertex="1">
          <mxGeometry x="420" y="380" width="30" height="20" as="geometry"/>
        </mxCell>
        <mxCell id="5gauXsj9vRF6J2wHdhXM-37" value="r4" style="text;html=1;resizable=0;points=[];autosize=1;align=left;verticalAlign=top;spacingTop=-4;" parent="1" vertex="1">
          <mxGeometry x="460" y="380" width="30" height="20" as="geometry"/>
        </mxCell>
        <mxCell id="5gauXsj9vRF6J2wHdhXM-38" value="rn" style="text;html=1;resizable=0;points=[];autosize=1;align=left;verticalAlign=top;spacingTop=-4;" parent="1" vertex="1">
          <mxGeometry x="505" y="380" width="30" height="20" as="geometry"/>
        </mxCell>
        <mxCell id="5gauXsj9vRF6J2wHdhXM-41" value="..." style="text;html=1;resizable=0;points=[];autosize=1;align=left;verticalAlign=top;spacingTop=-4;" parent="1" vertex="1">
          <mxGeometry x="480" y="380" width="30" height="20" as="geometry"/>
        </mxCell>
        <mxCell id="5gauXsj9vRF6J2wHdhXM-81" value="C" style="edgeStyle=orthogonalEdgeStyle;rounded=0;orthogonalLoop=1;jettySize=auto;html=1;exitX=0.5;exitY=0;exitDx=0;exitDy=0;entryX=0.5;entryY=1;entryDx=0;entryDy=0;" parent="1" source="5gauXsj9vRF6J2wHdhXM-45" target="5gauXsj9vRF6J2wHdhXM-55" edge="1">
          <mxGeometry relative="1" as="geometry"/>
        </mxCell>
        <mxCell id="5gauXsj9vRF6J2wHdhXM-93" style="edgeStyle=orthogonalEdgeStyle;rounded=0;orthogonalLoop=1;jettySize=auto;html=1;exitX=1;exitY=0.5;exitDx=0;exitDy=0;entryX=0;entryY=0.5;entryDx=0;entryDy=0;" parent="1" source="5gauXsj9vRF6J2wHdhXM-45" target="5gauXsj9vRF6J2wHdhXM-47" edge="1">
          <mxGeometry relative="1" as="geometry"/>
        </mxCell>
        <mxCell id="5gauXsj9vRF6J2wHdhXM-111" value="U" style="text;html=1;resizable=0;points=[];align=center;verticalAlign=middle;labelBackgroundColor=#ffffff;" parent="5gauXsj9vRF6J2wHdhXM-93" vertex="1" connectable="0">
          <mxGeometry x="-0.3043" y="1" relative="1" as="geometry">
            <mxPoint as="offset"/>
          </mxGeometry>
        </mxCell>
        <mxCell id="5gauXsj9vRF6J2wHdhXM-45" value="h01" style="ellipse;whiteSpace=wrap;html=1;aspect=fixed;" parent="1" vertex="1">
          <mxGeometry x="330" y="280" width="20" height="20" as="geometry"/>
        </mxCell>
        <mxCell id="5gauXsj9vRF6J2wHdhXM-82" value="U" style="edgeStyle=orthogonalEdgeStyle;rounded=0;orthogonalLoop=1;jettySize=auto;html=1;exitX=0.5;exitY=0;exitDx=0;exitDy=0;entryX=0.5;entryY=1;entryDx=0;entryDy=0;" parent="1" source="5gauXsj9vRF6J2wHdhXM-47" target="5gauXsj9vRF6J2wHdhXM-56" edge="1">
          <mxGeometry relative="1" as="geometry"/>
        </mxCell>
        <mxCell id="5gauXsj9vRF6J2wHdhXM-94" style="edgeStyle=orthogonalEdgeStyle;rounded=0;orthogonalLoop=1;jettySize=auto;html=1;exitX=1;exitY=0.5;exitDx=0;exitDy=0;entryX=0;entryY=0;entryDx=0;entryDy=0;" parent="1" source="5gauXsj9vRF6J2wHdhXM-47" target="5gauXsj9vRF6J2wHdhXM-48" edge="1">
          <mxGeometry relative="1" as="geometry"/>
        </mxCell>
        <mxCell id="5gauXsj9vRF6J2wHdhXM-112" value="C" style="text;html=1;resizable=0;points=[];align=center;verticalAlign=middle;labelBackgroundColor=#ffffff;" parent="5gauXsj9vRF6J2wHdhXM-94" vertex="1" connectable="0">
          <mxGeometry x="-0.1892" y="1" relative="1" as="geometry">
            <mxPoint as="offset"/>
          </mxGeometry>
        </mxCell>
        <mxCell id="5gauXsj9vRF6J2wHdhXM-47" value="h02" style="ellipse;whiteSpace=wrap;html=1;aspect=fixed;" parent="1" vertex="1">
          <mxGeometry x="373" y="280" width="20" height="20" as="geometry"/>
        </mxCell>
        <mxCell id="5gauXsj9vRF6J2wHdhXM-86" style="edgeStyle=orthogonalEdgeStyle;rounded=0;orthogonalLoop=1;jettySize=auto;html=1;exitX=0.5;exitY=0;exitDx=0;exitDy=0;entryX=0.5;entryY=1;entryDx=0;entryDy=0;" parent="1" source="5gauXsj9vRF6J2wHdhXM-48" target="5gauXsj9vRF6J2wHdhXM-57" edge="1">
          <mxGeometry relative="1" as="geometry"/>
        </mxCell>
        <mxCell id="5gauXsj9vRF6J2wHdhXM-87" value="C" style="text;html=1;resizable=0;points=[];align=center;verticalAlign=middle;labelBackgroundColor=#ffffff;" parent="5gauXsj9vRF6J2wHdhXM-86" vertex="1" connectable="0">
          <mxGeometry x="0.1333" y="1" relative="1" as="geometry">
            <mxPoint as="offset"/>
          </mxGeometry>
        </mxCell>
        <mxCell id="5gauXsj9vRF6J2wHdhXM-95" style="edgeStyle=orthogonalEdgeStyle;rounded=0;orthogonalLoop=1;jettySize=auto;html=1;exitX=1;exitY=0.5;exitDx=0;exitDy=0;entryX=0;entryY=0.5;entryDx=0;entryDy=0;" parent="1" source="5gauXsj9vRF6J2wHdhXM-48" target="5gauXsj9vRF6J2wHdhXM-50" edge="1">
          <mxGeometry relative="1" as="geometry"/>
        </mxCell>
        <mxCell id="5gauXsj9vRF6J2wHdhXM-113" value="C" style="text;html=1;resizable=0;points=[];align=center;verticalAlign=middle;labelBackgroundColor=#ffffff;" parent="5gauXsj9vRF6J2wHdhXM-95" vertex="1" connectable="0">
          <mxGeometry x="-0.1" y="3" relative="1" as="geometry">
            <mxPoint as="offset"/>
          </mxGeometry>
        </mxCell>
        <mxCell id="5gauXsj9vRF6J2wHdhXM-48" value="h03" style="ellipse;whiteSpace=wrap;html=1;aspect=fixed;" parent="1" vertex="1">
          <mxGeometry x="420" y="280" width="20" height="20" as="geometry"/>
        </mxCell>
        <mxCell id="5gauXsj9vRF6J2wHdhXM-89" value="C" style="edgeStyle=orthogonalEdgeStyle;rounded=0;orthogonalLoop=1;jettySize=auto;html=1;exitX=0.5;exitY=0;exitDx=0;exitDy=0;entryX=0.5;entryY=1;entryDx=0;entryDy=0;" parent="1" source="5gauXsj9vRF6J2wHdhXM-50" target="5gauXsj9vRF6J2wHdhXM-58" edge="1">
          <mxGeometry relative="1" as="geometry"/>
        </mxCell>
        <mxCell id="5gauXsj9vRF6J2wHdhXM-99" style="edgeStyle=orthogonalEdgeStyle;rounded=0;orthogonalLoop=1;jettySize=auto;html=1;exitX=1;exitY=0.5;exitDx=0;exitDy=0;entryX=0;entryY=0.5;entryDx=0;entryDy=0;" parent="1" source="5gauXsj9vRF6J2wHdhXM-50" target="5gauXsj9vRF6J2wHdhXM-52" edge="1">
          <mxGeometry relative="1" as="geometry"/>
        </mxCell>
        <mxCell id="5gauXsj9vRF6J2wHdhXM-114" value="U" style="text;html=1;resizable=0;points=[];align=center;verticalAlign=middle;labelBackgroundColor=#ffffff;" parent="5gauXsj9vRF6J2wHdhXM-99" vertex="1" connectable="0">
          <mxGeometry x="-0.2" y="-1" relative="1" as="geometry">
            <mxPoint as="offset"/>
          </mxGeometry>
        </mxCell>
        <mxCell id="5gauXsj9vRF6J2wHdhXM-50" value="h04" style="ellipse;whiteSpace=wrap;html=1;aspect=fixed;" parent="1" vertex="1">
          <mxGeometry x="460" y="280" width="20" height="20" as="geometry"/>
        </mxCell>
        <mxCell id="5gauXsj9vRF6J2wHdhXM-90" value="U" style="edgeStyle=orthogonalEdgeStyle;rounded=0;orthogonalLoop=1;jettySize=auto;html=1;exitX=0.5;exitY=0;exitDx=0;exitDy=0;entryX=0.5;entryY=1;entryDx=0;entryDy=0;" parent="1" source="5gauXsj9vRF6J2wHdhXM-52" target="5gauXsj9vRF6J2wHdhXM-59" edge="1">
          <mxGeometry relative="1" as="geometry"/>
        </mxCell>
        <mxCell id="5gauXsj9vRF6J2wHdhXM-133" style="edgeStyle=orthogonalEdgeStyle;rounded=0;orthogonalLoop=1;jettySize=auto;html=1;exitX=1;exitY=0.5;exitDx=0;exitDy=0;" parent="1" source="5gauXsj9vRF6J2wHdhXM-52" edge="1">
          <mxGeometry relative="1" as="geometry">
            <mxPoint x="590" y="130" as="targetPoint"/>
          </mxGeometry>
        </mxCell>
        <mxCell id="5gauXsj9vRF6J2wHdhXM-52" value="h0n" style="ellipse;whiteSpace=wrap;html=1;aspect=fixed;" parent="1" vertex="1">
          <mxGeometry x="505" y="280" width="20" height="20" as="geometry"/>
        </mxCell>
        <mxCell id="5gauXsj9vRF6J2wHdhXM-83" style="edgeStyle=orthogonalEdgeStyle;rounded=0;orthogonalLoop=1;jettySize=auto;html=1;exitX=0.5;exitY=0;exitDx=0;exitDy=0;entryX=0.5;entryY=1;entryDx=0;entryDy=0;" parent="1" source="5gauXsj9vRF6J2wHdhXM-55" target="5gauXsj9vRF6J2wHdhXM-60" edge="1">
          <mxGeometry relative="1" as="geometry"/>
        </mxCell>
        <mxCell id="5gauXsj9vRF6J2wHdhXM-84" value="U" style="text;html=1;resizable=0;points=[];align=center;verticalAlign=middle;labelBackgroundColor=#ffffff;" parent="5gauXsj9vRF6J2wHdhXM-83" vertex="1" connectable="0">
          <mxGeometry x="0.4" y="-1" relative="1" as="geometry">
            <mxPoint as="offset"/>
          </mxGeometry>
        </mxCell>
        <mxCell id="5gauXsj9vRF6J2wHdhXM-100" value="C" style="edgeStyle=orthogonalEdgeStyle;rounded=0;orthogonalLoop=1;jettySize=auto;html=1;exitX=1;exitY=0.5;exitDx=0;exitDy=0;entryX=0;entryY=0.5;entryDx=0;entryDy=0;" parent="1" source="5gauXsj9vRF6J2wHdhXM-55" target="5gauXsj9vRF6J2wHdhXM-56" edge="1">
          <mxGeometry relative="1" as="geometry"/>
        </mxCell>
        <mxCell id="5gauXsj9vRF6J2wHdhXM-55" value="h11" style="ellipse;whiteSpace=wrap;html=1;aspect=fixed;" parent="1" vertex="1">
          <mxGeometry x="330" y="230" width="20" height="20" as="geometry"/>
        </mxCell>
        <mxCell id="5gauXsj9vRF6J2wHdhXM-85" value="U" style="edgeStyle=orthogonalEdgeStyle;rounded=0;orthogonalLoop=1;jettySize=auto;html=1;exitX=0.5;exitY=0;exitDx=0;exitDy=0;entryX=0.5;entryY=1;entryDx=0;entryDy=0;" parent="1" source="5gauXsj9vRF6J2wHdhXM-56" target="5gauXsj9vRF6J2wHdhXM-61" edge="1">
          <mxGeometry relative="1" as="geometry"/>
        </mxCell>
        <mxCell id="5gauXsj9vRF6J2wHdhXM-123" value="C" style="edgeStyle=orthogonalEdgeStyle;rounded=0;orthogonalLoop=1;jettySize=auto;html=1;exitX=1;exitY=0.5;exitDx=0;exitDy=0;entryX=0;entryY=0.5;entryDx=0;entryDy=0;" parent="1" source="5gauXsj9vRF6J2wHdhXM-56" target="5gauXsj9vRF6J2wHdhXM-57" edge="1">
          <mxGeometry relative="1" as="geometry"/>
        </mxCell>
        <mxCell id="5gauXsj9vRF6J2wHdhXM-56" value="h12" style="ellipse;whiteSpace=wrap;html=1;aspect=fixed;" parent="1" vertex="1">
          <mxGeometry x="373" y="230" width="20" height="20" as="geometry"/>
        </mxCell>
        <mxCell id="5gauXsj9vRF6J2wHdhXM-88" value="F" style="edgeStyle=orthogonalEdgeStyle;rounded=0;orthogonalLoop=1;jettySize=auto;html=1;exitX=0.5;exitY=0;exitDx=0;exitDy=0;entryX=0.5;entryY=1;entryDx=0;entryDy=0;" parent="1" source="5gauXsj9vRF6J2wHdhXM-57" target="5gauXsj9vRF6J2wHdhXM-62" edge="1">
          <mxGeometry relative="1" as="geometry"/>
        </mxCell>
        <mxCell id="5gauXsj9vRF6J2wHdhXM-124" value="U" style="edgeStyle=orthogonalEdgeStyle;rounded=0;orthogonalLoop=1;jettySize=auto;html=1;exitX=1;exitY=0.5;exitDx=0;exitDy=0;entryX=0;entryY=0.5;entryDx=0;entryDy=0;" parent="1" source="5gauXsj9vRF6J2wHdhXM-57" target="5gauXsj9vRF6J2wHdhXM-58" edge="1">
          <mxGeometry relative="1" as="geometry"/>
        </mxCell>
        <mxCell id="5gauXsj9vRF6J2wHdhXM-57" value="h13" style="ellipse;whiteSpace=wrap;html=1;aspect=fixed;" parent="1" vertex="1">
          <mxGeometry x="420" y="230" width="20" height="20" as="geometry"/>
        </mxCell>
        <mxCell id="5gauXsj9vRF6J2wHdhXM-91" value="C" style="edgeStyle=orthogonalEdgeStyle;rounded=0;orthogonalLoop=1;jettySize=auto;html=1;exitX=0.5;exitY=0;exitDx=0;exitDy=0;entryX=0.5;entryY=1;entryDx=0;entryDy=0;" parent="1" source="5gauXsj9vRF6J2wHdhXM-58" target="5gauXsj9vRF6J2wHdhXM-63" edge="1">
          <mxGeometry relative="1" as="geometry"/>
        </mxCell>
        <mxCell id="5gauXsj9vRF6J2wHdhXM-103" style="edgeStyle=orthogonalEdgeStyle;rounded=0;orthogonalLoop=1;jettySize=auto;html=1;exitX=1;exitY=0.5;exitDx=0;exitDy=0;entryX=0;entryY=0;entryDx=0;entryDy=0;" parent="1" source="5gauXsj9vRF6J2wHdhXM-58" target="5gauXsj9vRF6J2wHdhXM-59" edge="1">
          <mxGeometry relative="1" as="geometry"/>
        </mxCell>
        <mxCell id="5gauXsj9vRF6J2wHdhXM-116" value="C" style="text;html=1;resizable=0;points=[];align=center;verticalAlign=middle;labelBackgroundColor=#ffffff;" parent="5gauXsj9vRF6J2wHdhXM-103" vertex="1" connectable="0">
          <mxGeometry x="-0.0286" y="-1" relative="1" as="geometry">
            <mxPoint as="offset"/>
          </mxGeometry>
        </mxCell>
        <mxCell id="5gauXsj9vRF6J2wHdhXM-58" value="h14" style="ellipse;whiteSpace=wrap;html=1;aspect=fixed;" parent="1" vertex="1">
          <mxGeometry x="460" y="230" width="20" height="20" as="geometry"/>
        </mxCell>
        <mxCell id="5gauXsj9vRF6J2wHdhXM-92" value="F" style="edgeStyle=orthogonalEdgeStyle;rounded=0;orthogonalLoop=1;jettySize=auto;html=1;exitX=0.5;exitY=0;exitDx=0;exitDy=0;entryX=0.5;entryY=1;entryDx=0;entryDy=0;" parent="1" source="5gauXsj9vRF6J2wHdhXM-59" target="5gauXsj9vRF6J2wHdhXM-64" edge="1">
          <mxGeometry relative="1" as="geometry"/>
        </mxCell>
        <mxCell id="5gauXsj9vRF6J2wHdhXM-132" style="edgeStyle=orthogonalEdgeStyle;rounded=0;orthogonalLoop=1;jettySize=auto;html=1;exitX=1;exitY=0.5;exitDx=0;exitDy=0;" parent="1" source="5gauXsj9vRF6J2wHdhXM-59" edge="1">
          <mxGeometry relative="1" as="geometry">
            <mxPoint x="570" y="130" as="targetPoint"/>
          </mxGeometry>
        </mxCell>
        <mxCell id="5gauXsj9vRF6J2wHdhXM-59" value="h1n" style="ellipse;whiteSpace=wrap;html=1;aspect=fixed;" parent="1" vertex="1">
          <mxGeometry x="505" y="230" width="20" height="20" as="geometry"/>
        </mxCell>
        <mxCell id="5gauXsj9vRF6J2wHdhXM-104" style="edgeStyle=orthogonalEdgeStyle;rounded=0;orthogonalLoop=1;jettySize=auto;html=1;exitX=1;exitY=0.5;exitDx=0;exitDy=0;" parent="1" source="5gauXsj9vRF6J2wHdhXM-60" edge="1">
          <mxGeometry relative="1" as="geometry">
            <mxPoint x="370" y="200" as="targetPoint"/>
          </mxGeometry>
        </mxCell>
        <mxCell id="5gauXsj9vRF6J2wHdhXM-117" value="U" style="text;html=1;resizable=0;points=[];align=center;verticalAlign=middle;labelBackgroundColor=#ffffff;" parent="5gauXsj9vRF6J2wHdhXM-104" vertex="1" connectable="0">
          <mxGeometry x="-0.2" y="2" relative="1" as="geometry">
            <mxPoint as="offset"/>
          </mxGeometry>
        </mxCell>
        <mxCell id="5gauXsj9vRF6J2wHdhXM-60" value="h21" style="ellipse;whiteSpace=wrap;html=1;aspect=fixed;" parent="1" vertex="1">
          <mxGeometry x="330" y="190" width="20" height="20" as="geometry"/>
        </mxCell>
        <mxCell id="5gauXsj9vRF6J2wHdhXM-108" style="edgeStyle=orthogonalEdgeStyle;rounded=0;orthogonalLoop=1;jettySize=auto;html=1;exitX=1;exitY=0.5;exitDx=0;exitDy=0;entryX=0;entryY=0.5;entryDx=0;entryDy=0;" parent="1" source="5gauXsj9vRF6J2wHdhXM-61" target="5gauXsj9vRF6J2wHdhXM-62" edge="1">
          <mxGeometry relative="1" as="geometry"/>
        </mxCell>
        <mxCell id="5gauXsj9vRF6J2wHdhXM-118" value="U" style="text;html=1;resizable=0;points=[];align=center;verticalAlign=middle;labelBackgroundColor=#ffffff;" parent="5gauXsj9vRF6J2wHdhXM-108" vertex="1" connectable="0">
          <mxGeometry x="-0.5556" relative="1" as="geometry">
            <mxPoint as="offset"/>
          </mxGeometry>
        </mxCell>
        <mxCell id="5gauXsj9vRF6J2wHdhXM-61" value="h22" style="ellipse;whiteSpace=wrap;html=1;aspect=fixed;" parent="1" vertex="1">
          <mxGeometry x="373" y="190" width="20" height="20" as="geometry"/>
        </mxCell>
        <mxCell id="5gauXsj9vRF6J2wHdhXM-109" value="C" style="edgeStyle=orthogonalEdgeStyle;rounded=0;orthogonalLoop=1;jettySize=auto;html=1;exitX=1;exitY=0.5;exitDx=0;exitDy=0;entryX=0;entryY=0.5;entryDx=0;entryDy=0;" parent="1" source="5gauXsj9vRF6J2wHdhXM-62" target="5gauXsj9vRF6J2wHdhXM-63" edge="1">
          <mxGeometry relative="1" as="geometry"/>
        </mxCell>
        <mxCell id="5gauXsj9vRF6J2wHdhXM-62" value="h23" style="ellipse;whiteSpace=wrap;html=1;aspect=fixed;" parent="1" vertex="1">
          <mxGeometry x="420" y="190" width="20" height="20" as="geometry"/>
        </mxCell>
        <mxCell id="5gauXsj9vRF6J2wHdhXM-110" style="edgeStyle=orthogonalEdgeStyle;rounded=0;orthogonalLoop=1;jettySize=auto;html=1;exitX=1;exitY=0.5;exitDx=0;exitDy=0;entryX=0;entryY=0.5;entryDx=0;entryDy=0;" parent="1" source="5gauXsj9vRF6J2wHdhXM-63" target="5gauXsj9vRF6J2wHdhXM-64" edge="1">
          <mxGeometry relative="1" as="geometry"/>
        </mxCell>
        <mxCell id="5gauXsj9vRF6J2wHdhXM-119" value="C" style="text;html=1;resizable=0;points=[];align=center;verticalAlign=middle;labelBackgroundColor=#ffffff;" parent="5gauXsj9vRF6J2wHdhXM-110" vertex="1" connectable="0">
          <mxGeometry x="0.28" relative="1" as="geometry">
            <mxPoint as="offset"/>
          </mxGeometry>
        </mxCell>
        <mxCell id="5gauXsj9vRF6J2wHdhXM-63" value="h24" style="ellipse;whiteSpace=wrap;html=1;aspect=fixed;" parent="1" vertex="1">
          <mxGeometry x="460" y="190" width="20" height="20" as="geometry"/>
        </mxCell>
        <mxCell id="5gauXsj9vRF6J2wHdhXM-131" style="edgeStyle=orthogonalEdgeStyle;rounded=0;orthogonalLoop=1;jettySize=auto;html=1;exitX=1;exitY=0.5;exitDx=0;exitDy=0;" parent="1" source="5gauXsj9vRF6J2wHdhXM-64" edge="1">
          <mxGeometry relative="1" as="geometry">
            <mxPoint x="545" y="130" as="targetPoint"/>
          </mxGeometry>
        </mxCell>
        <mxCell id="5gauXsj9vRF6J2wHdhXM-64" value="h2n" style="ellipse;whiteSpace=wrap;html=1;aspect=fixed;" parent="1" vertex="1">
          <mxGeometry x="505" y="190" width="20" height="20" as="geometry"/>
        </mxCell>
        <mxCell id="5gauXsj9vRF6J2wHdhXM-78" style="edgeStyle=orthogonalEdgeStyle;rounded=0;orthogonalLoop=1;jettySize=auto;html=1;exitX=1;exitY=0.5;exitDx=0;exitDy=0;entryX=0;entryY=0.5;entryDx=0;entryDy=0;" parent="1" source="5gauXsj9vRF6J2wHdhXM-65" target="5gauXsj9vRF6J2wHdhXM-45" edge="1">
          <mxGeometry relative="1" as="geometry"/>
        </mxCell>
        <mxCell id="5gauXsj9vRF6J2wHdhXM-65" value="h00" style="ellipse;whiteSpace=wrap;html=1;aspect=fixed;" parent="1" vertex="1">
          <mxGeometry x="290" y="280" width="20" height="20" as="geometry"/>
        </mxCell>
        <mxCell id="5gauXsj9vRF6J2wHdhXM-79" style="edgeStyle=orthogonalEdgeStyle;rounded=0;orthogonalLoop=1;jettySize=auto;html=1;exitX=1;exitY=0.5;exitDx=0;exitDy=0;entryX=0;entryY=0.5;entryDx=0;entryDy=0;" parent="1" source="5gauXsj9vRF6J2wHdhXM-66" target="5gauXsj9vRF6J2wHdhXM-55" edge="1">
          <mxGeometry relative="1" as="geometry"/>
        </mxCell>
        <mxCell id="5gauXsj9vRF6J2wHdhXM-66" value="h10" style="ellipse;whiteSpace=wrap;html=1;aspect=fixed;" parent="1" vertex="1">
          <mxGeometry x="290" y="230" width="20" height="20" as="geometry"/>
        </mxCell>
        <mxCell id="5gauXsj9vRF6J2wHdhXM-80" style="edgeStyle=orthogonalEdgeStyle;rounded=0;orthogonalLoop=1;jettySize=auto;html=1;exitX=1;exitY=0.5;exitDx=0;exitDy=0;entryX=0;entryY=0.5;entryDx=0;entryDy=0;" parent="1" source="5gauXsj9vRF6J2wHdhXM-67" target="5gauXsj9vRF6J2wHdhXM-60" edge="1">
          <mxGeometry relative="1" as="geometry"/>
        </mxCell>
        <mxCell id="5gauXsj9vRF6J2wHdhXM-67" value="h20" style="ellipse;whiteSpace=wrap;html=1;aspect=fixed;" parent="1" vertex="1">
          <mxGeometry x="290" y="190" width="20" height="20" as="geometry"/>
        </mxCell>
        <mxCell id="5gauXsj9vRF6J2wHdhXM-77" value="" style="shape=curlyBracket;whiteSpace=wrap;html=1;rounded=1;size=0.4;rotation=-90;" parent="1" vertex="1">
          <mxGeometry x="420" y="350" width="20" height="200" as="geometry"/>
        </mxCell>
        <mxCell id="5gauXsj9vRF6J2wHdhXM-126" value="h1" style="rounded=0;whiteSpace=wrap;html=1;direction=south;" parent="1" vertex="1">
          <mxGeometry x="330" y="100" width="20" height="60" as="geometry"/>
        </mxCell>
        <mxCell id="5gauXsj9vRF6J2wHdhXM-127" value="h2" style="rounded=0;whiteSpace=wrap;html=1;direction=south;" parent="1" vertex="1">
          <mxGeometry x="375" y="100" width="20" height="60" as="geometry"/>
        </mxCell>
        <mxCell id="5gauXsj9vRF6J2wHdhXM-128" value="h3" style="rounded=0;whiteSpace=wrap;html=1;direction=south;" parent="1" vertex="1">
          <mxGeometry x="420" y="100" width="20" height="60" as="geometry"/>
        </mxCell>
        <mxCell id="5gauXsj9vRF6J2wHdhXM-129" value="h4" style="rounded=0;whiteSpace=wrap;html=1;direction=south;" parent="1" vertex="1">
          <mxGeometry x="460" y="100" width="20" height="60" as="geometry"/>
        </mxCell>
        <mxCell id="5gauXsj9vRF6J2wHdhXM-130" value="hn" style="rounded=0;whiteSpace=wrap;html=1;direction=south;" parent="1" vertex="1">
          <mxGeometry x="560" y="50" width="20" height="60" as="geometry"/>
        </mxCell>
        <mxCell id="5gauXsj9vRF6J2wHdhXM-134" value="" style="shape=curlyBracket;whiteSpace=wrap;html=1;rounded=1;size=0.4;direction=north;rotation=0;" parent="1" vertex="1">
          <mxGeometry x="540" y="110" width="60" height="10" as="geometry"/>
        </mxCell>
        <mxCell id="5gauXsj9vRF6J2wHdhXM-138" value="gt2" style="text;html=1;resizable=0;points=[];autosize=1;align=left;verticalAlign=top;spacingTop=-4;" parent="1" vertex="1">
          <mxGeometry x="525" y="150" width="30" height="20" as="geometry"/>
        </mxCell>
        <mxCell id="5gauXsj9vRF6J2wHdhXM-139" value="gt1" style="text;html=1;resizable=0;points=[];autosize=1;align=left;verticalAlign=top;spacingTop=-4;" parent="1" vertex="1">
          <mxGeometry x="550" y="170" width="30" height="20" as="geometry"/>
        </mxCell>
        <mxCell id="5gauXsj9vRF6J2wHdhXM-140" value="gt0" style="text;html=1;resizable=0;points=[];autosize=1;align=left;verticalAlign=top;spacingTop=-4;" parent="1" vertex="1">
          <mxGeometry x="570" y="200" width="30" height="20" as="geometry"/>
        </mxCell>
        <mxCell id="5gauXsj9vRF6J2wHdhXM-149" style="edgeStyle=orthogonalEdgeStyle;rounded=0;orthogonalLoop=1;jettySize=auto;html=1;exitX=0;exitY=0.5;exitDx=0;exitDy=0;entryX=0;entryY=0.5;entryDx=0;entryDy=0;" parent="1" source="5gauXsj9vRF6J2wHdhXM-141" target="5gauXsj9vRF6J2wHdhXM-126" edge="1">
          <mxGeometry relative="1" as="geometry">
            <Array as="points">
              <mxPoint x="670" y="30"/>
              <mxPoint x="340" y="30"/>
            </Array>
          </mxGeometry>
        </mxCell>
        <mxCell id="5gauXsj9vRF6J2wHdhXM-152" style="edgeStyle=orthogonalEdgeStyle;rounded=0;orthogonalLoop=1;jettySize=auto;html=1;exitX=0;exitY=0.5;exitDx=0;exitDy=0;entryX=0;entryY=0.5;entryDx=0;entryDy=0;" parent="1" source="5gauXsj9vRF6J2wHdhXM-141" target="5gauXsj9vRF6J2wHdhXM-127" edge="1">
          <mxGeometry relative="1" as="geometry">
            <Array as="points">
              <mxPoint x="670" y="30"/>
              <mxPoint x="385" y="30"/>
            </Array>
          </mxGeometry>
        </mxCell>
        <mxCell id="5gauXsj9vRF6J2wHdhXM-155" style="edgeStyle=orthogonalEdgeStyle;rounded=0;orthogonalLoop=1;jettySize=auto;html=1;exitX=0;exitY=0.5;exitDx=0;exitDy=0;entryX=0;entryY=0.5;entryDx=0;entryDy=0;" parent="1" source="5gauXsj9vRF6J2wHdhXM-141" target="5gauXsj9vRF6J2wHdhXM-128" edge="1">
          <mxGeometry relative="1" as="geometry">
            <Array as="points">
              <mxPoint x="670" y="30"/>
              <mxPoint x="430" y="30"/>
            </Array>
          </mxGeometry>
        </mxCell>
        <mxCell id="5gauXsj9vRF6J2wHdhXM-159" style="edgeStyle=orthogonalEdgeStyle;rounded=0;orthogonalLoop=1;jettySize=auto;html=1;exitX=0;exitY=0.5;exitDx=0;exitDy=0;entryX=0;entryY=0.5;entryDx=0;entryDy=0;" parent="1" source="5gauXsj9vRF6J2wHdhXM-141" target="5gauXsj9vRF6J2wHdhXM-129" edge="1">
          <mxGeometry relative="1" as="geometry">
            <Array as="points">
              <mxPoint x="670" y="30"/>
              <mxPoint x="470" y="30"/>
            </Array>
          </mxGeometry>
        </mxCell>
        <mxCell id="5gauXsj9vRF6J2wHdhXM-162" style="edgeStyle=orthogonalEdgeStyle;rounded=0;orthogonalLoop=1;jettySize=auto;html=1;exitX=0;exitY=0.5;exitDx=0;exitDy=0;entryX=0;entryY=0.5;entryDx=0;entryDy=0;" parent="1" source="5gauXsj9vRF6J2wHdhXM-141" target="5gauXsj9vRF6J2wHdhXM-130" edge="1">
          <mxGeometry relative="1" as="geometry"/>
        </mxCell>
        <mxCell id="XpQrNMBGZDY6HOs745al-16" style="edgeStyle=orthogonalEdgeStyle;rounded=0;orthogonalLoop=1;jettySize=auto;html=1;exitX=0.5;exitY=0;exitDx=0;exitDy=0;entryX=0.5;entryY=1;entryDx=0;entryDy=0;" edge="1" parent="1" source="5gauXsj9vRF6J2wHdhXM-141" target="5gauXsj9vRF6J2wHdhXM-142">
          <mxGeometry relative="1" as="geometry"/>
        </mxCell>
        <mxCell id="5gauXsj9vRF6J2wHdhXM-141" value="LS&lt;br&gt;TM" style="rounded=0;whiteSpace=wrap;html=1;direction=south;" parent="1" vertex="1">
          <mxGeometry x="660" y="210" width="20" height="60" as="geometry"/>
        </mxCell>
        <mxCell id="5gauXsj9vRF6J2wHdhXM-150" style="edgeStyle=orthogonalEdgeStyle;rounded=0;orthogonalLoop=1;jettySize=auto;html=1;exitX=0;exitY=0.5;exitDx=0;exitDy=0;entryX=0;entryY=0.5;entryDx=0;entryDy=0;" parent="1" source="5gauXsj9vRF6J2wHdhXM-142" target="5gauXsj9vRF6J2wHdhXM-126" edge="1">
          <mxGeometry relative="1" as="geometry">
            <Array as="points">
              <mxPoint x="710" y="20"/>
              <mxPoint x="340" y="20"/>
            </Array>
          </mxGeometry>
        </mxCell>
        <mxCell id="5gauXsj9vRF6J2wHdhXM-153" style="edgeStyle=orthogonalEdgeStyle;rounded=0;orthogonalLoop=1;jettySize=auto;html=1;exitX=0;exitY=0.5;exitDx=0;exitDy=0;entryX=0;entryY=0.5;entryDx=0;entryDy=0;" parent="1" source="5gauXsj9vRF6J2wHdhXM-142" target="5gauXsj9vRF6J2wHdhXM-127" edge="1">
          <mxGeometry relative="1" as="geometry">
            <Array as="points">
              <mxPoint x="710" y="20"/>
              <mxPoint x="385" y="20"/>
            </Array>
          </mxGeometry>
        </mxCell>
        <mxCell id="5gauXsj9vRF6J2wHdhXM-156" style="edgeStyle=orthogonalEdgeStyle;rounded=0;orthogonalLoop=1;jettySize=auto;html=1;exitX=0;exitY=0.5;exitDx=0;exitDy=0;entryX=0;entryY=0.5;entryDx=0;entryDy=0;" parent="1" source="5gauXsj9vRF6J2wHdhXM-142" target="5gauXsj9vRF6J2wHdhXM-128" edge="1">
          <mxGeometry relative="1" as="geometry">
            <Array as="points">
              <mxPoint x="710" y="20"/>
              <mxPoint x="430" y="20"/>
            </Array>
          </mxGeometry>
        </mxCell>
        <mxCell id="5gauXsj9vRF6J2wHdhXM-160" style="edgeStyle=orthogonalEdgeStyle;rounded=0;orthogonalLoop=1;jettySize=auto;html=1;exitX=0;exitY=0.5;exitDx=0;exitDy=0;entryX=0;entryY=0.5;entryDx=0;entryDy=0;" parent="1" source="5gauXsj9vRF6J2wHdhXM-142" target="5gauXsj9vRF6J2wHdhXM-129" edge="1">
          <mxGeometry relative="1" as="geometry">
            <Array as="points">
              <mxPoint x="710" y="20"/>
              <mxPoint x="470" y="20"/>
            </Array>
          </mxGeometry>
        </mxCell>
        <mxCell id="5gauXsj9vRF6J2wHdhXM-163" style="edgeStyle=orthogonalEdgeStyle;rounded=0;orthogonalLoop=1;jettySize=auto;html=1;exitX=0;exitY=0.5;exitDx=0;exitDy=0;entryX=0;entryY=0.5;entryDx=0;entryDy=0;" parent="1" source="5gauXsj9vRF6J2wHdhXM-142" target="5gauXsj9vRF6J2wHdhXM-130" edge="1">
          <mxGeometry relative="1" as="geometry">
            <Array as="points">
              <mxPoint x="710" y="20"/>
              <mxPoint x="570" y="20"/>
            </Array>
          </mxGeometry>
        </mxCell>
        <mxCell id="XpQrNMBGZDY6HOs745al-17" style="edgeStyle=orthogonalEdgeStyle;rounded=0;orthogonalLoop=1;jettySize=auto;html=1;exitX=0.5;exitY=0;exitDx=0;exitDy=0;entryX=0.5;entryY=1;entryDx=0;entryDy=0;" edge="1" parent="1" source="5gauXsj9vRF6J2wHdhXM-142" target="5gauXsj9vRF6J2wHdhXM-143">
          <mxGeometry relative="1" as="geometry"/>
        </mxCell>
        <mxCell id="5gauXsj9vRF6J2wHdhXM-142" value="LS&lt;br&gt;TM" style="rounded=0;whiteSpace=wrap;html=1;direction=south;" parent="1" vertex="1">
          <mxGeometry x="700" y="210" width="20" height="60" as="geometry"/>
        </mxCell>
        <mxCell id="5gauXsj9vRF6J2wHdhXM-151" style="edgeStyle=orthogonalEdgeStyle;rounded=0;orthogonalLoop=1;jettySize=auto;html=1;exitX=0;exitY=0.5;exitDx=0;exitDy=0;entryX=0;entryY=0.5;entryDx=0;entryDy=0;" parent="1" source="5gauXsj9vRF6J2wHdhXM-143" target="5gauXsj9vRF6J2wHdhXM-126" edge="1">
          <mxGeometry relative="1" as="geometry">
            <Array as="points">
              <mxPoint x="750"/>
              <mxPoint x="340"/>
            </Array>
          </mxGeometry>
        </mxCell>
        <mxCell id="5gauXsj9vRF6J2wHdhXM-154" style="edgeStyle=orthogonalEdgeStyle;rounded=0;orthogonalLoop=1;jettySize=auto;html=1;exitX=0;exitY=0.5;exitDx=0;exitDy=0;entryX=0;entryY=0.5;entryDx=0;entryDy=0;" parent="1" source="5gauXsj9vRF6J2wHdhXM-143" target="5gauXsj9vRF6J2wHdhXM-127" edge="1">
          <mxGeometry relative="1" as="geometry">
            <Array as="points">
              <mxPoint x="750"/>
              <mxPoint x="385"/>
            </Array>
          </mxGeometry>
        </mxCell>
        <mxCell id="5gauXsj9vRF6J2wHdhXM-158" style="edgeStyle=orthogonalEdgeStyle;rounded=0;orthogonalLoop=1;jettySize=auto;html=1;exitX=0;exitY=0.5;exitDx=0;exitDy=0;entryX=0;entryY=0.5;entryDx=0;entryDy=0;" parent="1" source="5gauXsj9vRF6J2wHdhXM-143" target="5gauXsj9vRF6J2wHdhXM-128" edge="1">
          <mxGeometry relative="1" as="geometry">
            <Array as="points">
              <mxPoint x="750"/>
              <mxPoint x="430"/>
            </Array>
          </mxGeometry>
        </mxCell>
        <mxCell id="5gauXsj9vRF6J2wHdhXM-161" style="edgeStyle=orthogonalEdgeStyle;rounded=0;orthogonalLoop=1;jettySize=auto;html=1;exitX=0;exitY=0.5;exitDx=0;exitDy=0;entryX=0;entryY=0.5;entryDx=0;entryDy=0;" parent="1" source="5gauXsj9vRF6J2wHdhXM-143" target="5gauXsj9vRF6J2wHdhXM-129" edge="1">
          <mxGeometry relative="1" as="geometry">
            <Array as="points">
              <mxPoint x="750"/>
              <mxPoint x="470"/>
            </Array>
          </mxGeometry>
        </mxCell>
        <mxCell id="5gauXsj9vRF6J2wHdhXM-164" style="edgeStyle=orthogonalEdgeStyle;rounded=0;orthogonalLoop=1;jettySize=auto;html=1;exitX=0;exitY=0.5;exitDx=0;exitDy=0;entryX=0;entryY=0.5;entryDx=0;entryDy=0;" parent="1" source="5gauXsj9vRF6J2wHdhXM-143" target="5gauXsj9vRF6J2wHdhXM-130" edge="1">
          <mxGeometry relative="1" as="geometry">
            <Array as="points">
              <mxPoint x="750"/>
              <mxPoint x="570"/>
            </Array>
          </mxGeometry>
        </mxCell>
        <mxCell id="XpQrNMBGZDY6HOs745al-18" style="edgeStyle=orthogonalEdgeStyle;rounded=0;orthogonalLoop=1;jettySize=auto;html=1;exitX=0.5;exitY=0;exitDx=0;exitDy=0;" edge="1" parent="1" source="5gauXsj9vRF6J2wHdhXM-143">
          <mxGeometry relative="1" as="geometry">
            <mxPoint x="780" y="240" as="targetPoint"/>
          </mxGeometry>
        </mxCell>
        <mxCell id="5gauXsj9vRF6J2wHdhXM-143" value="LS&lt;br&gt;TM" style="rounded=0;whiteSpace=wrap;html=1;direction=south;" parent="1" vertex="1">
          <mxGeometry x="740" y="210" width="20" height="60" as="geometry"/>
        </mxCell>
        <mxCell id="5gauXsj9vRF6J2wHdhXM-170" style="edgeStyle=orthogonalEdgeStyle;rounded=0;orthogonalLoop=1;jettySize=auto;html=1;exitX=0;exitY=0.5;exitDx=0;exitDy=0;entryX=1;entryY=0.5;entryDx=0;entryDy=0;" parent="1" source="5gauXsj9vRF6J2wHdhXM-165" target="5gauXsj9vRF6J2wHdhXM-141" edge="1">
          <mxGeometry relative="1" as="geometry"/>
        </mxCell>
        <mxCell id="5gauXsj9vRF6J2wHdhXM-165" value="h1" style="rounded=0;whiteSpace=wrap;html=1;direction=south;" parent="1" vertex="1">
          <mxGeometry x="660" y="310" width="20" height="60" as="geometry"/>
        </mxCell>
        <mxCell id="5gauXsj9vRF6J2wHdhXM-171" style="edgeStyle=orthogonalEdgeStyle;rounded=0;orthogonalLoop=1;jettySize=auto;html=1;exitX=0;exitY=0.5;exitDx=0;exitDy=0;entryX=1;entryY=0.5;entryDx=0;entryDy=0;" parent="1" source="5gauXsj9vRF6J2wHdhXM-166" target="5gauXsj9vRF6J2wHdhXM-142" edge="1">
          <mxGeometry relative="1" as="geometry"/>
        </mxCell>
        <mxCell id="5gauXsj9vRF6J2wHdhXM-166" value="h3" style="rounded=0;whiteSpace=wrap;html=1;direction=south;" parent="1" vertex="1">
          <mxGeometry x="700" y="310" width="20" height="60" as="geometry"/>
        </mxCell>
        <mxCell id="5gauXsj9vRF6J2wHdhXM-172" style="edgeStyle=orthogonalEdgeStyle;rounded=0;orthogonalLoop=1;jettySize=auto;html=1;exitX=0;exitY=0.5;exitDx=0;exitDy=0;entryX=1;entryY=0.5;entryDx=0;entryDy=0;" parent="1" source="5gauXsj9vRF6J2wHdhXM-168" target="5gauXsj9vRF6J2wHdhXM-143" edge="1">
          <mxGeometry relative="1" as="geometry"/>
        </mxCell>
        <mxCell id="5gauXsj9vRF6J2wHdhXM-168" value="h4" style="rounded=0;whiteSpace=wrap;html=1;direction=south;" parent="1" vertex="1">
          <mxGeometry x="740" y="310" width="20" height="60" as="geometry"/>
        </mxCell>
        <mxCell id="5gauXsj9vRF6J2wHdhXM-173" value="" style="endArrow=none;dashed=1;html=1;exitX=0;exitY=0.5;exitDx=0;exitDy=0;entryX=0.5;entryY=1;entryDx=0;entryDy=0;" parent="1" source="5gauXsj9vRF6J2wHdhXM-126" target="5gauXsj9vRF6J2wHdhXM-165" edge="1">
          <mxGeometry width="50" height="50" relative="1" as="geometry">
            <mxPoint x="610" y="290" as="sourcePoint"/>
            <mxPoint x="660" y="240" as="targetPoint"/>
            <Array as="points">
              <mxPoint x="340" y="60"/>
              <mxPoint x="340" y="50"/>
              <mxPoint x="340" y="40"/>
              <mxPoint x="630" y="40"/>
              <mxPoint x="630" y="350"/>
            </Array>
          </mxGeometry>
        </mxCell>
        <mxCell id="5gauXsj9vRF6J2wHdhXM-174" value="" style="endArrow=none;dashed=1;html=1;entryX=0.5;entryY=1;entryDx=0;entryDy=0;" parent="1" target="5gauXsj9vRF6J2wHdhXM-166" edge="1">
          <mxGeometry width="50" height="50" relative="1" as="geometry">
            <mxPoint x="430" y="55" as="sourcePoint"/>
            <mxPoint x="705" y="325" as="targetPoint"/>
            <Array as="points">
              <mxPoint x="690" y="55"/>
              <mxPoint x="690" y="190"/>
              <mxPoint x="690" y="260"/>
              <mxPoint x="690" y="340"/>
            </Array>
          </mxGeometry>
        </mxCell>
        <mxCell id="5gauXsj9vRF6J2wHdhXM-175" value="" style="endArrow=none;dashed=1;html=1;entryX=0.5;entryY=1;entryDx=0;entryDy=0;" parent="1" target="5gauXsj9vRF6J2wHdhXM-168" edge="1">
          <mxGeometry width="50" height="50" relative="1" as="geometry">
            <mxPoint x="470" y="90" as="sourcePoint"/>
            <mxPoint x="520" y="30" as="targetPoint"/>
            <Array as="points">
              <mxPoint x="730" y="90"/>
              <mxPoint x="730" y="220"/>
              <mxPoint x="730" y="290"/>
              <mxPoint x="730" y="340"/>
            </Array>
          </mxGeometry>
        </mxCell>
        <mxCell id="5gauXsj9vRF6J2wHdhXM-242" style="edgeStyle=orthogonalEdgeStyle;rounded=0;orthogonalLoop=1;jettySize=auto;html=1;exitX=0.1;exitY=0.5;exitDx=0;exitDy=0;exitPerimeter=0;" parent="1" source="5gauXsj9vRF6J2wHdhXM-176" edge="1">
          <mxGeometry relative="1" as="geometry">
            <mxPoint x="680" y="450" as="targetPoint"/>
          </mxGeometry>
        </mxCell>
        <mxCell id="5gauXsj9vRF6J2wHdhXM-176" value="" style="shape=curlyBracket;whiteSpace=wrap;html=1;rounded=1;size=0.4;rotation=-90;" parent="1" vertex="1">
          <mxGeometry x="725" y="325" width="10" height="150" as="geometry"/>
        </mxCell>
        <mxCell id="5gauXsj9vRF6J2wHdhXM-177" value="hm" style="rounded=0;whiteSpace=wrap;html=1;direction=south;" parent="1" vertex="1">
          <mxGeometry x="790" y="310" width="20" height="60" as="geometry"/>
        </mxCell>
        <mxCell id="5gauXsj9vRF6J2wHdhXM-187" value="h1" style="rounded=0;whiteSpace=wrap;html=1;" parent="1" vertex="1">
          <mxGeometry x="720" y="470" width="80" height="20" as="geometry"/>
        </mxCell>
        <mxCell id="5gauXsj9vRF6J2wHdhXM-188" value="h2" style="rounded=0;whiteSpace=wrap;html=1;" parent="1" vertex="1">
          <mxGeometry x="720" y="490" width="80" height="20" as="geometry"/>
        </mxCell>
        <mxCell id="5gauXsj9vRF6J2wHdhXM-189" value="h3" style="rounded=0;whiteSpace=wrap;html=1;" parent="1" vertex="1">
          <mxGeometry x="720" y="510" width="80" height="20" as="geometry"/>
        </mxCell>
        <mxCell id="5gauXsj9vRF6J2wHdhXM-190" value="..." style="rounded=0;whiteSpace=wrap;html=1;" parent="1" vertex="1">
          <mxGeometry x="720" y="530" width="80" height="20" as="geometry"/>
        </mxCell>
        <mxCell id="5gauXsj9vRF6J2wHdhXM-211" value="Update" style="edgeStyle=orthogonalEdgeStyle;rounded=0;orthogonalLoop=1;jettySize=auto;html=1;exitX=0.5;exitY=1;exitDx=0;exitDy=0;entryX=0.5;entryY=1;entryDx=0;entryDy=0;" parent="1" source="5gauXsj9vRF6J2wHdhXM-191" target="5gauXsj9vRF6J2wHdhXM-201" edge="1">
          <mxGeometry relative="1" as="geometry">
            <Array as="points">
              <mxPoint x="760" y="593"/>
              <mxPoint x="600" y="593"/>
            </Array>
          </mxGeometry>
        </mxCell>
        <mxCell id="5gauXsj9vRF6J2wHdhXM-212" style="edgeStyle=orthogonalEdgeStyle;rounded=0;orthogonalLoop=1;jettySize=auto;html=1;exitX=0.5;exitY=1;exitDx=0;exitDy=0;" parent="1" source="5gauXsj9vRF6J2wHdhXM-191" edge="1">
          <mxGeometry relative="1" as="geometry">
            <mxPoint x="760" y="640" as="targetPoint"/>
          </mxGeometry>
        </mxCell>
        <mxCell id="5gauXsj9vRF6J2wHdhXM-191" value="hm" style="rounded=0;whiteSpace=wrap;html=1;" parent="1" vertex="1">
          <mxGeometry x="720" y="550" width="80" height="20" as="geometry"/>
        </mxCell>
        <mxCell id="5gauXsj9vRF6J2wHdhXM-192" value="" style="rounded=0;whiteSpace=wrap;html=1;" parent="1" vertex="1">
          <mxGeometry x="665" y="470" width="30" height="25" as="geometry"/>
        </mxCell>
        <mxCell id="5gauXsj9vRF6J2wHdhXM-193" value="" style="rounded=0;whiteSpace=wrap;html=1;" parent="1" vertex="1">
          <mxGeometry x="665" y="490" width="30" height="25" as="geometry"/>
        </mxCell>
        <mxCell id="5gauXsj9vRF6J2wHdhXM-194" value="" style="rounded=0;whiteSpace=wrap;html=1;" parent="1" vertex="1">
          <mxGeometry x="665" y="510" width="30" height="25" as="geometry"/>
        </mxCell>
        <mxCell id="5gauXsj9vRF6J2wHdhXM-195" value="" style="rounded=0;whiteSpace=wrap;html=1;" parent="1" vertex="1">
          <mxGeometry x="665" y="525" width="30" height="30" as="geometry"/>
        </mxCell>
        <mxCell id="5gauXsj9vRF6J2wHdhXM-196" value="" style="rounded=0;whiteSpace=wrap;html=1;" parent="1" vertex="1">
          <mxGeometry x="665" y="550" width="30" height="25" as="geometry"/>
        </mxCell>
        <mxCell id="5gauXsj9vRF6J2wHdhXM-197" value="k1" style="rounded=0;whiteSpace=wrap;html=1;" parent="1" vertex="1">
          <mxGeometry x="560" y="472.5" width="80" height="20" as="geometry"/>
        </mxCell>
        <mxCell id="5gauXsj9vRF6J2wHdhXM-198" value="k2" style="rounded=0;whiteSpace=wrap;html=1;" parent="1" vertex="1">
          <mxGeometry x="560" y="492.5" width="80" height="20" as="geometry"/>
        </mxCell>
        <mxCell id="5gauXsj9vRF6J2wHdhXM-199" value="k3" style="rounded=0;whiteSpace=wrap;html=1;" parent="1" vertex="1">
          <mxGeometry x="560" y="512.5" width="80" height="20" as="geometry"/>
        </mxCell>
        <mxCell id="5gauXsj9vRF6J2wHdhXM-200" value="..." style="rounded=0;whiteSpace=wrap;html=1;" parent="1" vertex="1">
          <mxGeometry x="560" y="532.5" width="80" height="20" as="geometry"/>
        </mxCell>
        <mxCell id="5gauXsj9vRF6J2wHdhXM-213" style="edgeStyle=orthogonalEdgeStyle;rounded=0;orthogonalLoop=1;jettySize=auto;html=1;exitX=0.5;exitY=1;exitDx=0;exitDy=0;" parent="1" source="5gauXsj9vRF6J2wHdhXM-201" edge="1">
          <mxGeometry relative="1" as="geometry">
            <mxPoint x="600" y="640" as="targetPoint"/>
          </mxGeometry>
        </mxCell>
        <mxCell id="5gauXsj9vRF6J2wHdhXM-201" value="km" style="rounded=0;whiteSpace=wrap;html=1;" parent="1" vertex="1">
          <mxGeometry x="560" y="552.5" width="80" height="20" as="geometry"/>
        </mxCell>
        <mxCell id="5gauXsj9vRF6J2wHdhXM-202" value="" style="shape=curlyBracket;whiteSpace=wrap;html=1;rounded=1;size=0.4;direction=east;" parent="1" vertex="1">
          <mxGeometry x="640" y="470" width="20" height="100" as="geometry"/>
        </mxCell>
        <mxCell id="5gauXsj9vRF6J2wHdhXM-205" value="" style="endArrow=none;dashed=1;html=1;" parent="1" edge="1">
          <mxGeometry width="50" height="50" relative="1" as="geometry">
            <mxPoint x="700" y="482.5" as="sourcePoint"/>
            <mxPoint x="720" y="482.5" as="targetPoint"/>
          </mxGeometry>
        </mxCell>
        <mxCell id="5gauXsj9vRF6J2wHdhXM-206" value="" style="endArrow=none;dashed=1;html=1;" parent="1" edge="1">
          <mxGeometry width="50" height="50" relative="1" as="geometry">
            <mxPoint x="700" y="500" as="sourcePoint"/>
            <mxPoint x="720" y="500" as="targetPoint"/>
          </mxGeometry>
        </mxCell>
        <mxCell id="5gauXsj9vRF6J2wHdhXM-207" value="" style="endArrow=none;dashed=1;html=1;" parent="1" edge="1">
          <mxGeometry width="50" height="50" relative="1" as="geometry">
            <mxPoint x="700" y="514.5" as="sourcePoint"/>
            <mxPoint x="720" y="514.5" as="targetPoint"/>
          </mxGeometry>
        </mxCell>
        <mxCell id="5gauXsj9vRF6J2wHdhXM-209" value="" style="endArrow=none;dashed=1;html=1;" parent="1" edge="1">
          <mxGeometry width="50" height="50" relative="1" as="geometry">
            <mxPoint x="700" y="539.5" as="sourcePoint"/>
            <mxPoint x="720" y="539.5" as="targetPoint"/>
          </mxGeometry>
        </mxCell>
        <mxCell id="5gauXsj9vRF6J2wHdhXM-210" value="" style="endArrow=none;dashed=1;html=1;" parent="1" edge="1">
          <mxGeometry width="50" height="50" relative="1" as="geometry">
            <mxPoint x="695" y="562" as="sourcePoint"/>
            <mxPoint x="715" y="562" as="targetPoint"/>
          </mxGeometry>
        </mxCell>
        <mxCell id="5gauXsj9vRF6J2wHdhXM-214" style="edgeStyle=orthogonalEdgeStyle;rounded=0;orthogonalLoop=1;jettySize=auto;html=1;exitX=0.5;exitY=1;exitDx=0;exitDy=0;" parent="1" edge="1">
          <mxGeometry relative="1" as="geometry">
            <mxPoint x="760" y="750" as="targetPoint"/>
            <mxPoint x="760" y="680" as="sourcePoint"/>
          </mxGeometry>
        </mxCell>
        <mxCell id="5gauXsj9vRF6J2wHdhXM-215" style="edgeStyle=orthogonalEdgeStyle;rounded=0;orthogonalLoop=1;jettySize=auto;html=1;exitX=0.5;exitY=1;exitDx=0;exitDy=0;" parent="1" edge="1">
          <mxGeometry relative="1" as="geometry">
            <mxPoint x="600" y="750" as="targetPoint"/>
            <mxPoint x="600" y="680" as="sourcePoint"/>
          </mxGeometry>
        </mxCell>
        <mxCell id="5gauXsj9vRF6J2wHdhXM-216" value="h1" style="rounded=0;whiteSpace=wrap;html=1;" parent="1" vertex="1">
          <mxGeometry x="720" y="780" width="80" height="20" as="geometry"/>
        </mxCell>
        <mxCell id="5gauXsj9vRF6J2wHdhXM-217" value="h2" style="rounded=0;whiteSpace=wrap;html=1;" parent="1" vertex="1">
          <mxGeometry x="720" y="800" width="80" height="20" as="geometry"/>
        </mxCell>
        <mxCell id="5gauXsj9vRF6J2wHdhXM-218" value="h3" style="rounded=0;whiteSpace=wrap;html=1;" parent="1" vertex="1">
          <mxGeometry x="720" y="820" width="80" height="20" as="geometry"/>
        </mxCell>
        <mxCell id="5gauXsj9vRF6J2wHdhXM-219" value="..." style="rounded=0;whiteSpace=wrap;html=1;" parent="1" vertex="1">
          <mxGeometry x="720" y="840" width="80" height="20" as="geometry"/>
        </mxCell>
        <mxCell id="5gauXsj9vRF6J2wHdhXM-240" style="edgeStyle=orthogonalEdgeStyle;rounded=0;orthogonalLoop=1;jettySize=auto;html=1;exitX=0.5;exitY=1;exitDx=0;exitDy=0;entryX=0.5;entryY=1;entryDx=0;entryDy=0;" parent="1" source="5gauXsj9vRF6J2wHdhXM-220" target="5gauXsj9vRF6J2wHdhXM-236" edge="1">
          <mxGeometry relative="1" as="geometry"/>
        </mxCell>
        <mxCell id="5gauXsj9vRF6J2wHdhXM-241" value="Update" style="text;html=1;resizable=0;points=[];align=center;verticalAlign=middle;labelBackgroundColor=#ffffff;" parent="5gauXsj9vRF6J2wHdhXM-240" vertex="1" connectable="0">
          <mxGeometry x="0.202" y="-1" relative="1" as="geometry">
            <mxPoint as="offset"/>
          </mxGeometry>
        </mxCell>
        <mxCell id="5gauXsj9vRF6J2wHdhXM-220" value="hm" style="rounded=0;whiteSpace=wrap;html=1;" parent="1" vertex="1">
          <mxGeometry x="720" y="860" width="80" height="20" as="geometry"/>
        </mxCell>
        <mxCell id="5gauXsj9vRF6J2wHdhXM-221" value="" style="rounded=0;whiteSpace=wrap;html=1;" parent="1" vertex="1">
          <mxGeometry x="665" y="780" width="30" height="25" as="geometry"/>
        </mxCell>
        <mxCell id="5gauXsj9vRF6J2wHdhXM-222" value="" style="rounded=0;whiteSpace=wrap;html=1;" parent="1" vertex="1">
          <mxGeometry x="665" y="800" width="30" height="25" as="geometry"/>
        </mxCell>
        <mxCell id="5gauXsj9vRF6J2wHdhXM-223" value="" style="rounded=0;whiteSpace=wrap;html=1;" parent="1" vertex="1">
          <mxGeometry x="665" y="820" width="30" height="25" as="geometry"/>
        </mxCell>
        <mxCell id="5gauXsj9vRF6J2wHdhXM-224" value="" style="rounded=0;whiteSpace=wrap;html=1;" parent="1" vertex="1">
          <mxGeometry x="665" y="835" width="30" height="30" as="geometry"/>
        </mxCell>
        <mxCell id="5gauXsj9vRF6J2wHdhXM-225" value="k1" style="rounded=0;whiteSpace=wrap;html=1;" parent="1" vertex="1">
          <mxGeometry x="560" y="782.5" width="80" height="20" as="geometry"/>
        </mxCell>
        <mxCell id="5gauXsj9vRF6J2wHdhXM-226" value="k2" style="rounded=0;whiteSpace=wrap;html=1;" parent="1" vertex="1">
          <mxGeometry x="560" y="802.5" width="80" height="20" as="geometry"/>
        </mxCell>
        <mxCell id="5gauXsj9vRF6J2wHdhXM-227" value="k3" style="rounded=0;whiteSpace=wrap;html=1;" parent="1" vertex="1">
          <mxGeometry x="560" y="822.5" width="80" height="20" as="geometry"/>
        </mxCell>
        <mxCell id="5gauXsj9vRF6J2wHdhXM-228" value="..." style="rounded=0;whiteSpace=wrap;html=1;" parent="1" vertex="1">
          <mxGeometry x="560" y="842.5" width="80" height="20" as="geometry"/>
        </mxCell>
        <mxCell id="5gauXsj9vRF6J2wHdhXM-229" value="" style="shape=curlyBracket;whiteSpace=wrap;html=1;rounded=1;size=0.4;direction=east;" parent="1" vertex="1">
          <mxGeometry x="640" y="780" width="20" height="100" as="geometry"/>
        </mxCell>
        <mxCell id="5gauXsj9vRF6J2wHdhXM-230" value="" style="endArrow=none;dashed=1;html=1;" parent="1" edge="1">
          <mxGeometry width="50" height="50" relative="1" as="geometry">
            <mxPoint x="700" y="792.5" as="sourcePoint"/>
            <mxPoint x="720" y="792.5" as="targetPoint"/>
          </mxGeometry>
        </mxCell>
        <mxCell id="5gauXsj9vRF6J2wHdhXM-231" value="" style="endArrow=none;dashed=1;html=1;" parent="1" edge="1">
          <mxGeometry width="50" height="50" relative="1" as="geometry">
            <mxPoint x="700" y="810" as="sourcePoint"/>
            <mxPoint x="720" y="810" as="targetPoint"/>
          </mxGeometry>
        </mxCell>
        <mxCell id="5gauXsj9vRF6J2wHdhXM-232" value="" style="endArrow=none;dashed=1;html=1;" parent="1" edge="1">
          <mxGeometry width="50" height="50" relative="1" as="geometry">
            <mxPoint x="700" y="824.5" as="sourcePoint"/>
            <mxPoint x="720" y="824.5" as="targetPoint"/>
          </mxGeometry>
        </mxCell>
        <mxCell id="5gauXsj9vRF6J2wHdhXM-233" value="" style="endArrow=none;dashed=1;html=1;" parent="1" edge="1">
          <mxGeometry width="50" height="50" relative="1" as="geometry">
            <mxPoint x="700" y="849.5" as="sourcePoint"/>
            <mxPoint x="720" y="849.5" as="targetPoint"/>
          </mxGeometry>
        </mxCell>
        <mxCell id="5gauXsj9vRF6J2wHdhXM-234" value="" style="endArrow=none;dashed=1;html=1;" parent="1" edge="1">
          <mxGeometry width="50" height="50" relative="1" as="geometry">
            <mxPoint x="695" y="872" as="sourcePoint"/>
            <mxPoint x="715" y="872" as="targetPoint"/>
          </mxGeometry>
        </mxCell>
        <mxCell id="5gauXsj9vRF6J2wHdhXM-235" value="" style="rounded=0;whiteSpace=wrap;html=1;" parent="1" vertex="1">
          <mxGeometry x="665" y="865" width="30" height="25" as="geometry"/>
        </mxCell>
        <mxCell id="5gauXsj9vRF6J2wHdhXM-236" value="km" style="rounded=0;whiteSpace=wrap;html=1;" parent="1" vertex="1">
          <mxGeometry x="560" y="862.5" width="80" height="20" as="geometry"/>
        </mxCell>
        <mxCell id="5gauXsj9vRF6J2wHdhXM-245" value="" style="edgeStyle=orthogonalEdgeStyle;rounded=0;orthogonalLoop=1;jettySize=auto;html=1;" parent="1" source="5gauXsj9vRF6J2wHdhXM-243" target="5gauXsj9vRF6J2wHdhXM-244" edge="1">
          <mxGeometry relative="1" as="geometry"/>
        </mxCell>
        <mxCell id="5gauXsj9vRF6J2wHdhXM-243" value="&amp;lt;s&amp;gt;" style="rounded=0;whiteSpace=wrap;html=1;direction=south;" parent="1" vertex="1">
          <mxGeometry x="160" y="570" width="20" height="60" as="geometry"/>
        </mxCell>
        <mxCell id="5gauXsj9vRF6J2wHdhXM-247" value="" style="edgeStyle=orthogonalEdgeStyle;rounded=0;orthogonalLoop=1;jettySize=auto;html=1;" parent="1" source="5gauXsj9vRF6J2wHdhXM-244" target="5gauXsj9vRF6J2wHdhXM-246" edge="1">
          <mxGeometry relative="1" as="geometry"/>
        </mxCell>
        <mxCell id="5gauXsj9vRF6J2wHdhXM-244" value="y1" style="rounded=0;whiteSpace=wrap;html=1;direction=south;" parent="1" vertex="1">
          <mxGeometry x="223" y="570" width="20" height="60" as="geometry"/>
        </mxCell>
        <mxCell id="5gauXsj9vRF6J2wHdhXM-248" style="edgeStyle=orthogonalEdgeStyle;rounded=0;orthogonalLoop=1;jettySize=auto;html=1;exitX=0.5;exitY=0;exitDx=0;exitDy=0;" parent="1" source="5gauXsj9vRF6J2wHdhXM-246" edge="1">
          <mxGeometry relative="1" as="geometry">
            <mxPoint x="330" y="600" as="targetPoint"/>
          </mxGeometry>
        </mxCell>
        <mxCell id="5gauXsj9vRF6J2wHdhXM-246" value="y2" style="rounded=0;whiteSpace=wrap;html=1;direction=south;" parent="1" vertex="1">
          <mxGeometry x="286" y="570" width="20" height="60" as="geometry"/>
        </mxCell>
        <mxCell id="5gauXsj9vRF6J2wHdhXM-249" style="edgeStyle=orthogonalEdgeStyle;rounded=0;orthogonalLoop=1;jettySize=auto;html=1;exitX=0.5;exitY=0;exitDx=0;exitDy=0;" parent="1" edge="1">
          <mxGeometry relative="1" as="geometry">
            <mxPoint x="384" y="600" as="targetPoint"/>
            <mxPoint x="360" y="600" as="sourcePoint"/>
          </mxGeometry>
        </mxCell>
        <mxCell id="5gauXsj9vRF6J2wHdhXM-250" value="ya-1" style="rounded=0;whiteSpace=wrap;html=1;direction=south;" parent="1" vertex="1">
          <mxGeometry x="385" y="572.5" width="20" height="60" as="geometry"/>
        </mxCell>
        <mxCell id="5gauXsj9vRF6J2wHdhXM-251" value="" style="endArrow=none;dashed=1;html=1;" parent="1" edge="1">
          <mxGeometry width="50" height="50" relative="1" as="geometry">
            <mxPoint x="455" y="570" as="sourcePoint"/>
            <mxPoint x="505" y="520" as="targetPoint"/>
          </mxGeometry>
        </mxCell>
        <mxCell id="5gauXsj9vRF6J2wHdhXM-252" value="" style="endArrow=none;dashed=1;html=1;" parent="1" edge="1">
          <mxGeometry width="50" height="50" relative="1" as="geometry">
            <mxPoint x="430" y="640" as="sourcePoint"/>
            <mxPoint x="555" y="822.5" as="targetPoint"/>
          </mxGeometry>
        </mxCell>
        <mxCell id="5gauXsj9vRF6J2wHdhXM-255" value="" style="endArrow=classic;html=1;" parent="1" edge="1">
          <mxGeometry width="50" height="50" relative="1" as="geometry">
            <mxPoint x="550" y="845" as="sourcePoint"/>
            <mxPoint x="260" y="820" as="targetPoint"/>
            <Array as="points">
              <mxPoint x="410" y="780"/>
            </Array>
          </mxGeometry>
        </mxCell>
        <mxCell id="5gauXsj9vRF6J2wHdhXM-256" value="Ct" style="text;html=1;resizable=0;points=[];autosize=1;align=left;verticalAlign=top;spacingTop=-4;" parent="1" vertex="1">
          <mxGeometry x="405" y="800" width="30" height="20" as="geometry"/>
        </mxCell>
        <mxCell id="5gauXsj9vRF6J2wHdhXM-257" value="" style="endArrow=classic;html=1;" parent="1" edge="1">
          <mxGeometry width="50" height="50" relative="1" as="geometry">
            <mxPoint x="255" y="673" as="sourcePoint"/>
            <mxPoint x="255" y="810" as="targetPoint"/>
          </mxGeometry>
        </mxCell>
        <mxCell id="5gauXsj9vRF6J2wHdhXM-258" value="Softmax" style="rounded=0;whiteSpace=wrap;html=1;" parent="1" vertex="1">
          <mxGeometry x="178" y="825" width="154" height="25" as="geometry"/>
        </mxCell>
        <mxCell id="5gauXsj9vRF6J2wHdhXM-259" value="st-1&amp;nbsp;" style="text;html=1;resizable=0;points=[];autosize=1;align=left;verticalAlign=top;spacingTop=-4;" parent="1" vertex="1">
          <mxGeometry x="275" y="708" width="40" height="20" as="geometry"/>
        </mxCell>
        <mxCell id="XpQrNMBGZDY6HOs745al-32" value="st-1&amp;nbsp;" style="text;html=1;resizable=0;points=[];autosize=1;align=left;verticalAlign=top;spacingTop=-4;" vertex="1" parent="1">
          <mxGeometry x="275" y="808" width="40" height="20" as="geometry"/>
        </mxCell>
        <mxCell id="5gauXsj9vRF6J2wHdhXM-260" value="y1--------&amp;gt;y2--------&amp;gt;...---&amp;gt;ya" style="text;html=1;resizable=0;points=[];autosize=1;align=left;verticalAlign=top;spacingTop=-4;" parent="1" vertex="1">
          <mxGeometry x="175" y="865" width="160" height="20" as="geometry"/>
        </mxCell>
        <mxCell id="XpQrNMBGZDY6HOs745al-2" value="" style="endArrow=none;dashed=1;html=1;" edge="1" parent="1">
          <mxGeometry width="50" height="50" relative="1" as="geometry">
            <mxPoint x="310" y="207.5" as="sourcePoint"/>
            <mxPoint x="335" y="232.5" as="targetPoint"/>
          </mxGeometry>
        </mxCell>
        <mxCell id="XpQrNMBGZDY6HOs745al-3" value="" style="endArrow=none;dashed=1;html=1;" edge="1" parent="1">
          <mxGeometry width="50" height="50" relative="1" as="geometry">
            <mxPoint x="350" y="210" as="sourcePoint"/>
            <mxPoint x="370" y="230" as="targetPoint"/>
          </mxGeometry>
        </mxCell>
        <mxCell id="XpQrNMBGZDY6HOs745al-4" value="" style="endArrow=none;dashed=1;html=1;" edge="1" parent="1">
          <mxGeometry width="50" height="50" relative="1" as="geometry">
            <mxPoint x="393" y="210" as="sourcePoint"/>
            <mxPoint x="413" y="230" as="targetPoint"/>
          </mxGeometry>
        </mxCell>
        <mxCell id="XpQrNMBGZDY6HOs745al-5" value="" style="endArrow=none;dashed=1;html=1;" edge="1" parent="1">
          <mxGeometry width="50" height="50" relative="1" as="geometry">
            <mxPoint x="440" y="210" as="sourcePoint"/>
            <mxPoint x="460" y="230" as="targetPoint"/>
          </mxGeometry>
        </mxCell>
        <mxCell id="XpQrNMBGZDY6HOs745al-6" value="" style="endArrow=none;dashed=1;html=1;" edge="1" parent="1">
          <mxGeometry width="50" height="50" relative="1" as="geometry">
            <mxPoint x="480" y="210" as="sourcePoint"/>
            <mxPoint x="505" y="235" as="targetPoint"/>
          </mxGeometry>
        </mxCell>
        <mxCell id="XpQrNMBGZDY6HOs745al-7" value="" style="endArrow=none;dashed=1;html=1;" edge="1" parent="1">
          <mxGeometry width="50" height="50" relative="1" as="geometry">
            <mxPoint x="306" y="255" as="sourcePoint"/>
            <mxPoint x="331" y="280" as="targetPoint"/>
          </mxGeometry>
        </mxCell>
        <mxCell id="XpQrNMBGZDY6HOs745al-8" value="" style="endArrow=none;dashed=1;html=1;" edge="1" parent="1">
          <mxGeometry width="50" height="50" relative="1" as="geometry">
            <mxPoint x="350" y="250" as="sourcePoint"/>
            <mxPoint x="375" y="275" as="targetPoint"/>
          </mxGeometry>
        </mxCell>
        <mxCell id="XpQrNMBGZDY6HOs745al-9" value="" style="endArrow=none;dashed=1;html=1;" edge="1" parent="1">
          <mxGeometry width="50" height="50" relative="1" as="geometry">
            <mxPoint x="397.5" y="255" as="sourcePoint"/>
            <mxPoint x="422.5" y="280" as="targetPoint"/>
          </mxGeometry>
        </mxCell>
        <mxCell id="XpQrNMBGZDY6HOs745al-10" value="" style="endArrow=none;dashed=1;html=1;" edge="1" parent="1">
          <mxGeometry width="50" height="50" relative="1" as="geometry">
            <mxPoint x="477.5" y="250" as="sourcePoint"/>
            <mxPoint x="502.5" y="275" as="targetPoint"/>
          </mxGeometry>
        </mxCell>
        <mxCell id="XpQrNMBGZDY6HOs745al-11" value="" style="endArrow=none;dashed=1;html=1;" edge="1" parent="1">
          <mxGeometry width="50" height="50" relative="1" as="geometry">
            <mxPoint x="437.5" y="255" as="sourcePoint"/>
            <mxPoint x="462.5" y="280" as="targetPoint"/>
          </mxGeometry>
        </mxCell>
        <mxCell id="XpQrNMBGZDY6HOs745al-12" value="..." style="text;html=1;resizable=0;points=[];autosize=1;align=left;verticalAlign=top;spacingTop=-4;" vertex="1" parent="1">
          <mxGeometry x="765" y="330" width="30" height="20" as="geometry"/>
        </mxCell>
        <mxCell id="XpQrNMBGZDY6HOs745al-13" value="..." style="text;html=1;resizable=0;points=[];autosize=1;align=left;verticalAlign=top;spacingTop=-4;" vertex="1" parent="1">
          <mxGeometry x="590" y="650" width="30" height="20" as="geometry"/>
        </mxCell>
        <mxCell id="XpQrNMBGZDY6HOs745al-14" value="..." style="text;html=1;resizable=0;points=[];autosize=1;align=left;verticalAlign=top;spacingTop=-4;" vertex="1" parent="1">
          <mxGeometry x="750" y="650" width="30" height="20" as="geometry"/>
        </mxCell>
        <mxCell id="XpQrNMBGZDY6HOs745al-15" value="" style="endArrow=none;dashed=1;html=1;" edge="1" parent="1">
          <mxGeometry width="50" height="50" relative="1" as="geometry">
            <mxPoint x="440" y="600" as="sourcePoint"/>
            <mxPoint x="540" y="640" as="targetPoint"/>
          </mxGeometry>
        </mxCell>
        <mxCell id="XpQrNMBGZDY6HOs745al-19" value="..." style="text;html=1;resizable=0;points=[];autosize=1;align=left;verticalAlign=top;spacingTop=-4;" vertex="1" parent="1">
          <mxGeometry x="785" y="230" width="30" height="20" as="geometry"/>
        </mxCell>
        <mxCell id="XpQrNMBGZDY6HOs745al-20" value="st-1 yt-1" style="text;html=1;resizable=0;points=[];autosize=1;align=left;verticalAlign=top;spacingTop=-4;" vertex="1" parent="1">
          <mxGeometry x="460" y="640" width="60" height="20" as="geometry"/>
        </mxCell>
        <mxCell id="XpQrNMBGZDY6HOs745al-23" value="..." style="text;html=1;resizable=0;points=[];autosize=1;align=left;verticalAlign=top;spacingTop=-4;" vertex="1" parent="1">
          <mxGeometry x="335" y="590" width="30" height="20" as="geometry"/>
        </mxCell>
        <mxCell id="XpQrNMBGZDY6HOs745al-24" value="Embedded&lt;br&gt;word &lt;br&gt;vectors" style="text;html=1;resizable=0;points=[];autosize=1;align=left;verticalAlign=top;spacingTop=-4;" vertex="1" parent="1">
          <mxGeometry x="-20" y="280" width="70" height="40" as="geometry"/>
        </mxCell>
        <mxCell id="XpQrNMBGZDY6HOs745al-25" value="Encoded sentence representation" style="text;html=1;resizable=0;points=[];autosize=1;align=left;verticalAlign=top;spacingTop=-4;" vertex="1" parent="1">
          <mxGeometry x="340" y="430" width="190" height="20" as="geometry"/>
        </mxCell>
        <mxCell id="XpQrNMBGZDY6HOs745al-26" value="Context aware sentence" style="text;html=1;resizable=0;points=[];autosize=1;align=left;verticalAlign=top;spacingTop=-4;" vertex="1" parent="1">
          <mxGeometry x="665" y="375" width="140" height="20" as="geometry"/>
        </mxCell>
        <mxCell id="XpQrNMBGZDY6HOs745al-28" value="attn history" style="text;html=1;resizable=0;points=[];autosize=1;align=left;verticalAlign=top;spacingTop=-4;" vertex="1" parent="1">
          <mxGeometry x="565" y="760" width="70" height="20" as="geometry"/>
        </mxCell>
        <mxCell id="XpQrNMBGZDY6HOs745al-29" value="val memory" style="text;html=1;resizable=0;points=[];autosize=1;align=left;verticalAlign=top;spacingTop=-4;" vertex="1" parent="1">
          <mxGeometry x="730" y="760" width="80" height="20" as="geometry"/>
        </mxCell>
        <mxCell id="XpQrNMBGZDY6HOs745al-30" value="Decoder" style="text;html=1;resizable=0;points=[];autosize=1;align=left;verticalAlign=top;spacingTop=-4;" vertex="1" parent="1">
          <mxGeometry x="150" y="540" width="60" height="20" as="geometry"/>
        </mxCell>
        <mxCell id="XpQrNMBGZDY6HOs745al-31" value="yt-1" style="text;html=1;resizable=0;points=[];autosize=1;align=left;verticalAlign=top;spacingTop=-4;" vertex="1" parent="1">
          <mxGeometry x="203" y="708" width="40" height="20" as="geometry"/>
        </mxCell>
        <mxCell id="XpQrNMBGZDY6HOs745al-37" value="(decoder state)" style="text;html=1;resizable=0;points=[];autosize=1;align=left;verticalAlign=top;spacingTop=-4;" vertex="1" parent="1">
          <mxGeometry x="265" y="728" width="100" height="20" as="geometry"/>
        </mxCell>
        <mxCell id="XpQrNMBGZDY6HOs745al-38" value="(previous prediction)" style="text;html=1;resizable=0;points=[];autosize=1;align=left;verticalAlign=top;spacingTop=-4;" vertex="1" parent="1">
          <mxGeometry x="140" y="738" width="120" height="20" as="geometry"/>
        </mxCell>
      </root>
    </mxGraphModel>
  </diagram>
</mxfile>
